<svg id="e8GEZHkoAqr1" xmlns="http://www.w3.org/2000/svg" xmlns:xlink="http://www.w3.org/1999/xlink" viewBox="0 0 1920 1080" shape-rendering="geometricPrecision" text-rendering="geometricPrecision" project-id="fdf1d06f14c0467181a7d54a0e86fe98" export-id="c483fc5952fe4652990b177c6789f13c" cached="false"><path d="M107.16646,111.280867v92.094511l489.252088-.000001v-92.094512l-489.252088.000002Z" transform="translate(0 0.000004)" fill="none" stroke="#fff" stroke-width="3.84"/><path d="M107.16646,255.280867v92.094511l489.252088-.000001v-92.094512l-489.252088.000002Z" transform="translate(0 0.000004)" fill="none" stroke="#fff" stroke-width="3.84"/><path d="M107.16646,418.280867v92.094511l489.252088-.000001v-92.094512l-489.252088.000002Z" transform="translate(0 0.000004)" fill="none" stroke="#fff" stroke-width="3.84"/><path d="M107.16646,566.280867v92.094511l489.252088-.000001v-92.094512l-489.252088.000002Z" transform="translate(0 0.000003)" fill="none" stroke="#fff" stroke-width="3.84"/><path d="M723.16646,187.280867l-.11796,92.094511l489.370048-.000001v-92.094512l-489.252088.000002Z" transform="translate(0 0.000004)" fill="none" stroke="#fff" stroke-width="3.84"/><path d="M721.129864,496.280867l2.036596,92.094511l489.252088-.000001v-92.094512l-491.288684.000002Z" transform="translate(0 0.000004)" fill="none" stroke="#fff" stroke-width="3.84"/><path d="M1322.16646,336.280867v92.094511l489.252088-.000001v-92.094512l-489.252088.000002Z" transform="translate(0 0.000004)" fill="none" stroke="#fff" stroke-width="3.84"/><path d="M596.418548,157.328123l61.39634.000003v75.999999v67.999997l-61.39634-.000001" transform="translate(0 0.000003)" fill="none" stroke="#fff" stroke-width="3.84"/><path d="M657.814888,233.328123l65.351572.000005" transform="translate(0 0.000001)" fill="none" stroke="#fff" stroke-width="3.84"/><path d="M596.418548,464.328126l61.39634-.000003v75.671876v72.328123l-61.39634.000001" transform="translate(0 0.000002)" fill="none" stroke="#fff" stroke-width="3.84"/><path d="M657.814888,542.328126h65.351572" fill="none" stroke="#fff" stroke-width="3.84"/><path d="M1212.418549,542.328126l53.603837-2.328125-.000001-157.671876-1.918636-153h-51.685201" transform="translate(.000001 0.000002)" fill="none" stroke="#fff" stroke-width="3.84"/><path d="" fill="none" stroke="#fff" stroke-width="3.84"/><path d="M1322.16646,382.328123l-58.06271.000004" fill="none" stroke="#fff" stroke-width="3.84"/></svg>
